<svg width="14" height="12" viewBox="0 0 14 12" fill="none" xmlns="http://www.w3.org/2000/svg">
<path fill-rule="evenodd" clip-rule="evenodd" d="M13.8507 5.74634C13.8507 5.58772 13.7986 5.43559 13.7059 5.32343C13.6131 5.21127 13.4873 5.14825 13.3561 5.14825H1.68958L4.80283 1.38512C4.84882 1.32951 4.8853 1.2635 4.91019 1.19084C4.93508 1.11819 4.94789 1.04032 4.94789 0.961677C4.94789 0.883036 4.93508 0.805166 4.91019 0.732511C4.8853 0.659857 4.84882 0.593841 4.80283 0.538234C4.75684 0.482627 4.70224 0.438517 4.64216 0.408423C4.58207 0.378328 4.51767 0.362839 4.45263 0.362839C4.38759 0.362839 4.32319 0.378328 4.2631 0.408423C4.20301 0.438517 4.14841 0.482627 4.10242 0.538234L0.145319 5.32289C0.0992546 5.37845 0.0627079 5.44445 0.0377718 5.51711C0.0128357 5.58977 0 5.66767 0 5.74634C0 5.82501 0.0128357 5.9029 0.0377718 5.97556C0.0627079 6.04822 0.0992546 6.11422 0.145319 6.16978L4.10242 10.9544C4.14841 11.01 4.20301 11.0542 4.2631 11.0843C4.32319 11.1143 4.38759 11.1298 4.45263 11.1298C4.51767 11.1298 4.58207 11.1143 4.64216 11.0843C4.70224 11.0542 4.75684 11.01 4.80283 10.9544C4.84882 10.8988 4.8853 10.8328 4.91019 10.7602C4.93508 10.6875 4.94789 10.6096 4.94789 10.531C4.94789 10.4524 4.93508 10.3745 4.91019 10.3018C4.8853 10.2292 4.84882 10.1632 4.80283 10.1076L1.68958 6.34442H13.3561C13.4873 6.34442 13.6131 6.28141 13.7059 6.16925C13.7986 6.05708 13.8507 5.90496 13.8507 5.74634Z" fill="#A9A9A9"/>
</svg>
