<svg width="57" height="57" viewBox="0 0 57 57" fill="none" xmlns="http://www.w3.org/2000/svg">
<circle cx="28.1354" cy="28.1354" r="27.3854" stroke="#9F938B" stroke-width="1.5"/>
<path d="M32.0087 15.5976C32.0087 15.3308 31.9562 15.0667 31.8541 14.8203C31.752 14.5738 31.6024 14.3499 31.4138 14.1613C31.2252 13.9727 31.0012 13.8231 30.7548 13.721C30.5084 13.6189 30.2443 13.5664 29.9775 13.5664H20.2817C19.7496 13.5697 19.24 13.782 18.8629 14.1575C18.4859 14.533 18.2715 15.0417 18.2661 15.5738C18.2607 16.106 18.4646 16.6189 18.8339 17.0021C19.2032 17.3852 19.7084 17.6078 20.2403 17.622V38.1747C20.2393 39.1618 20.5373 40.126 21.095 40.9403C21.6528 41.7547 22.4442 42.3809 23.3649 42.7366C24.2856 43.0924 25.2925 43.1608 26.2529 42.933C27.2132 42.7051 28.0821 42.1917 28.7449 41.4603C29.4923 42.206 30.4389 42.7204 31.4712 42.942C31.8571 43.0223 32.2502 43.0629 32.6444 43.0631C33.3734 43.0647 34.0956 42.9224 34.7696 42.6445C35.4435 42.3665 36.0561 41.9584 36.5721 41.4434C37.0881 40.9283 37.4974 40.3166 37.7766 39.6431C38.0558 38.9697 38.1994 38.2478 38.1992 37.5188C38.1697 36.3968 37.8281 35.3052 37.2126 34.3667L33.2327 26.9699C33.1775 26.8636 33.0938 26.7749 32.9909 26.7136C32.888 26.6524 32.7701 26.6212 32.6504 26.6234C32.531 26.6239 32.414 26.6569 32.3119 26.7187C32.2098 26.7806 32.1264 26.8691 32.0708 26.9747L30.02 30.864V17.6239C30.5505 17.6127 31.0555 17.3945 31.4272 17.0159C31.7988 16.6372 32.0075 16.1281 32.0087 15.5976ZM25.1302 41.7481C24.1828 41.747 23.2745 41.3702 22.6047 40.7003C21.9348 40.0304 21.5579 39.1221 21.5568 38.1747V17.6272H28.7035V33.3609C28.7035 33.3609 27.9772 34.7684 27.8418 35.0607V24.0397C27.8418 23.8651 27.7724 23.6977 27.649 23.5743C27.5255 23.4508 27.3581 23.3815 27.1835 23.3815H23.0772C22.9907 23.3814 22.9051 23.3984 22.8252 23.4315C22.7454 23.4645 22.6728 23.513 22.6116 23.5741C22.5505 23.6353 22.502 23.7079 22.469 23.7877C22.4359 23.8676 22.4189 23.9532 22.4189 24.0397V37.8998C22.4179 38.4865 22.6074 39.0577 22.9589 39.5274C23.3104 39.9971 23.805 40.34 24.3682 40.5044C24.9314 40.6688 25.5327 40.6459 26.0818 40.4391C26.6308 40.2323 27.0978 39.8528 27.4126 39.3577C27.54 39.7259 27.7072 40.0791 27.9114 40.4109C27.5775 40.8278 27.1542 41.1644 26.6729 41.3958C26.1915 41.6272 25.6643 41.7476 25.1302 41.7481ZM26.5253 24.6995V37.8998C26.5283 38.0849 26.4945 38.2688 26.4258 38.4407C26.357 38.6126 26.2548 38.7691 26.1249 38.9011C25.9951 39.033 25.8403 39.1379 25.6695 39.2094C25.4988 39.281 25.3155 39.3178 25.1304 39.3178C24.9452 39.3178 24.7619 39.281 24.5912 39.2094C24.4204 39.1379 24.2656 39.033 24.1358 38.9011C24.006 38.7691 23.9037 38.6126 23.835 38.4407C23.7662 38.2688 23.7324 38.0849 23.7354 37.8998V24.6995H26.5253ZM32.659 28.682L36.0605 35.0039C36.065 35.0129 36.07 35.0217 36.0755 35.0302C36.5695 35.7691 36.8489 36.6306 36.8827 37.5188C36.8837 38.1478 36.7439 38.7691 36.4735 39.3371C36.2031 39.9051 35.8091 40.4054 35.3202 40.8013C34.8245 41.2011 34.2456 41.4851 33.626 41.6324C33.0064 41.7797 32.3617 41.7867 31.739 41.6529C30.9719 41.4869 30.2666 41.1096 29.7027 40.5638C29.1388 40.018 28.7388 39.3253 28.5478 38.5641C28.2236 37.1979 28.8111 36.0345 29.4344 34.8026L32.659 28.682ZM29.9787 16.3107H20.2817C20.1844 16.3167 20.0869 16.3026 19.9952 16.2694C19.9035 16.2362 19.8196 16.1847 19.7486 16.1178C19.6776 16.051 19.621 15.9704 19.5823 15.8809C19.5436 15.7914 19.5237 15.6949 19.5237 15.5974C19.5237 15.4999 19.5436 15.4034 19.5823 15.3139C19.621 15.2244 19.6776 15.1438 19.7486 15.0769C19.8196 15.0101 19.9035 14.9585 19.9952 14.9254C20.0869 14.8922 20.1844 14.8781 20.2817 14.884H29.9787C30.076 14.8781 30.1735 14.8922 30.2652 14.9254C30.3569 14.9585 30.4408 15.0101 30.5118 15.0769C30.5828 15.1438 30.6394 15.2244 30.6781 15.3139C30.7167 15.4034 30.7367 15.4999 30.7367 15.5974C30.7367 15.6949 30.7167 15.7914 30.6781 15.8809C30.6394 15.9704 30.5828 16.051 30.5118 16.1178C30.4408 16.1847 30.3569 16.2362 30.2652 16.2694C30.1735 16.3026 30.076 16.3167 29.9787 16.3107Z" fill="#9F938B"/>
</svg>
